<svg xmlns="http://www.w3.org/2000/svg" viewBox="0 0 512 512" width="512" height="512"><defs>
  <radialGradient id="bg" cx="45%" cy="40%" r="75%"><stop offset="0" stop-color="#ffffff"/><stop offset=".6" stop-color="#f6f3ec"/><stop offset="1" stop-color="#e6e3d8"/></radialGradient>
  <radialGradient id="cyto" cx="42%" cy="38%" r="70%"><stop offset="0" stop-color="#fdf7fb"/><stop offset="1" stop-color="#ead9ee"/></radialGradient>
  <radialGradient id="nuc" cx="40%" cy="35%" r="70%"><stop offset="0" stop-color="#f3b8c8"/><stop offset="1" stop-color="#c75b7a"/></radialGradient>
</defs><rect width="512" height="512" fill="url(#bg)"/><g transform="translate(256 256) scale(0.86) translate(-256 -256)"><g id="cell">
  <g fill="none" stroke="#8a4f9e" stroke-width="5" stroke-linecap="round" opacity=".75"><path d="M406.0 256.0Q422.5 242.7 438.5 232.5"/><path d="M403.7 282.0Q412.9 300.2 422.2 313.8"/><path d="M397.0 307.3Q406.4 328.5 416.7 345.7"/><path d="M385.9 331.0Q403.2 326.0 418.4 323.8"/><path d="M370.9 352.4Q372.6 375.6 376.3 395.2"/><path d="M352.4 370.9Q347.8 390.7 346.2 407.1"/><path d="M331.0 385.9Q350.8 393.5 367.6 402.3"/><path d="M307.3 397.0Q296.2 414.0 289.1 428.9"/><path d="M282.0 403.7Q268.4 422.5 258.7 440.0"/><path d="M256.0 406.0Q269.0 418.5 278.5 430.6"/><path d="M230.0 403.7Q210.7 416.7 195.6 429.8"/><path d="M204.7 397.0Q185.2 402.8 170.2 409.7"/><path d="M181.0 385.9Q184.3 406.8 185.1 425.8"/><path d="M159.6 370.9Q139.3 369.8 122.8 371.1"/><path d="M141.1 352.4Q118.0 350.0 98.0 350.3"/><path d="M126.1 331.0Q121.8 348.5 116.1 362.7"/><path d="M115.0 307.3Q94.2 297.2 75.3 290.6"/><path d="M108.3 282.0Q93.5 268.1 80.0 258.6"/><path d="M106.0 256.0Q89.5 269.3 73.5 279.5"/><path d="M108.3 230.0Q99.1 211.8 89.8 198.2"/><path d="M115.0 204.7Q105.6 183.5 95.3 166.3"/><path d="M126.1 181.0Q108.8 186.0 93.6 188.2"/><path d="M141.1 159.6Q139.4 136.4 135.7 116.8"/><path d="M159.6 141.1Q164.2 121.3 165.8 104.9"/><path d="M181.0 126.1Q161.2 118.5 144.4 109.7"/><path d="M204.7 115.0Q215.8 98.0 222.9 83.1"/><path d="M230.0 108.3Q243.6 89.5 253.3 72.0"/><path d="M256.0 106.0Q243.0 93.5 233.5 81.4"/><path d="M282.0 108.3Q301.3 95.3 316.4 82.2"/><path d="M307.3 115.0Q326.8 109.2 341.8 102.3"/><path d="M331.0 126.1Q327.7 105.2 326.9 86.2"/><path d="M352.4 141.1Q372.7 142.2 389.2 140.9"/><path d="M370.9 159.6Q394.0 162.0 414.0 161.7"/><path d="M385.9 181.0Q390.2 163.5 395.9 149.3"/><path d="M397.0 204.7Q417.8 214.8 436.7 221.4"/><path d="M403.7 230.0Q418.5 243.9 432.0 253.4"/></g>
  <ellipse cx="256" cy="256" rx="152" ry="148" fill="url(#cyto)" stroke="#8a4f9e" stroke-width="9"/>
  <ellipse cx="256" cy="256" rx="138" ry="134" fill="none" stroke="#8a4f9e" stroke-opacity=".25" stroke-width="3" stroke-dasharray="4 7"/>
  <circle cx="232" cy="236" r="58" fill="url(#nuc)" stroke="#a8424f" stroke-width="5"/>
  <circle cx="218" cy="222" r="15" fill="#7a2f4a" opacity=".75"/>
  <g fill="#2f6f9a" opacity=".55"><circle cx="322" cy="300" r="11"/><circle cx="300" cy="338" r="7"/><circle cx="196" cy="326" r="9"/><circle cx="338" cy="214" r="6"/><circle cx="178" cy="282" r="5"/></g>
  <g fill="#b98a3a" opacity=".6"><ellipse cx="318" cy="252" rx="16" ry="7" transform="rotate(-30 318 252)"/><ellipse cx="236" cy="334" rx="13" ry="6" transform="rotate(20 236 334)"/></g>
</g></g></svg>